<?xml version="1.0" encoding="utf-8"?>
<!-- Generator: Adobe Illustrator 27.8.1, SVG Export Plug-In . SVG Version: 6.00 Build 0)  -->
<svg version="1.1" id="Layer_1" xmlns="http://www.w3.org/2000/svg" xmlns:xlink="http://www.w3.org/1999/xlink" x="0px" y="0px"
	 viewBox="0 0 492.7 499.9" style="enable-background:new 0 0 492.7 499.9;" xml:space="preserve">
<style type="text/css">
	.st0{fill:#FF8500;}
</style>
<path class="st0" d="M79.6,430.7c39.5-45.3,79-90.6,118.5-135.9c-0.3-0.3-0.6-0.7-0.8-1c-47,34.8-94,69.7-141,104.5
	c-0.1-0.2-0.2-0.3-0.4-0.5c45.2-37.2,90.4-74.5,135.6-111.7c-0.2-0.4-0.4-0.7-0.7-1.1C138.1,312,85.4,339,32.6,366
	c-0.1-0.1-0.2-0.3-0.2-0.4C83.7,336,135,306.4,186.4,276.7c-0.2-0.4-0.3-0.8-0.5-1.1c-56.8,18-113.5,35.9-170.3,53.9
	c0-0.1-0.1-0.3-0.1-0.4c55.7-20.8,111.5-41.6,167.2-62.3c-0.1-0.4-0.2-0.9-0.3-1.3c-60,8.4-120.1,16.9-180.1,25.3c0-0.1,0-0.2,0-0.2
	c59.6-11.5,119.2-23,178.7-34.4c0-0.4-0.1-0.9-0.1-1.3c-59.9-1.6-119.8-3.1-180.7-4.7c1.2-0.4,1.6-0.5,1.9-0.5
	c9-0.3,18-0.5,26.9-0.7c15.6-0.3,31.2-0.5,46.7-0.9c18.6-0.4,37.1-0.9,55.7-1.4c15.7-0.4,31.4-0.9,47.1-1.3c0.8,0,1.6-0.2,2.4-0.3
	c0.1-0.4,0.1-0.7,0.2-1.1c-59.5-11.5-119.1-23-178.6-34.4c0-0.1,0-0.2,0-0.2c60,8.4,120,16.9,180,25.3c0.1-0.4,0.2-0.8,0.4-1.3
	C127,212.4,71.2,191.7,15.5,170.9c0-0.1,0.1-0.3,0.1-0.4c56.7,17.9,113.4,35.9,170.1,53.8c0.2-0.4,0.4-0.8,0.6-1.1
	C135,193.6,83.7,163.9,32.4,134.3c0.1-0.1,0.1-0.3,0.2-0.4c52.7,27,105.5,54,158.2,81c0.2-0.4,0.5-0.7,0.7-1.1
	c-46.3-38.2-92.7-76.4-139-114.6c0.1-0.1,0.2-0.2,0.2-0.3c48.2,35.7,96.4,71.5,144.6,107.2c0.3-0.3,0.6-0.6,0.9-0.9
	C158.9,160.1,119.6,115,80.3,69.9c0.1-0.1,0.2-0.2,0.3-0.3c41.5,43,83.1,86,124.6,129.1c0.4-0.2,0.7-0.5,1.1-0.7
	c-31-50.3-62-100.6-93.1-150.9c0.1-0.1,0.3-0.2,0.4-0.3c33.5,48.6,66.9,97.1,100.4,145.7c0.4-0.2,0.8-0.4,1.2-0.6
	c-22.3-54.7-44.7-109.4-67-164.1c0.1-0.1,0.3-0.1,0.4-0.2c25.1,53.6,50.2,107.3,75.3,160.9c0.4-0.1,0.8-0.3,1.2-0.4
	C211.9,129.3,198.7,70.6,185.5,12c0.1,0,0.2-0.1,0.3-0.1c16.1,58,32.3,116,48.4,173.9c0.4-0.1,0.8-0.1,1.2-0.2
	c-3.5-61.9-6.9-123.8-10.4-185.7c0,0,0.1,0,0.1,0c6.6,61.5,13.2,123,19.9,184.5c0.4,0,0.9,0,1.3,0C253,123,259.6,61.5,266.2,0
	c0.1,0,0.1,0,0.2,0c-0.9,15.5-1.9,30.9-2.8,46.4c-0.6,9.8-1.1,19.6-1.6,29.4c-0.9,16-1.9,32-2.7,48c-0.6,10.8-1.1,21.5-1.6,32.3
	c-0.4,8.6-1,17.2-1.4,25.8c-0.1,1.3,0,2.6,0,3.8c0.3,0.1,0.6,0.1,0.9,0.2c15.9-57,31.7-114,47.6-171c0.2,0,0.3,0.1,0.5,0.1
	c-13,57.6-26,115.2-38.9,172.9c0.4,0.2,0.8,0.3,1.2,0.5c25.3-54.1,50.6-108.1,75.9-162.2c0.1,0.1,0.2,0.1,0.4,0.2
	c-22.5,55.2-45.1,110.4-67.6,165.6c0.4,0.2,0.8,0.4,1.2,0.6c34-49.3,67.9-98.5,101.9-147.8c0.1,0.1,0.2,0.1,0.3,0.2
	c-31.5,51-63,102.1-94.5,153.1c0.3,0.3,0.7,0.5,1,0.8C328,155.5,369.8,112.2,411.6,69c0.1,0.1,0.2,0.2,0.3,0.2
	c-39.5,45.3-79.1,90.7-118.6,136c0.3,0.3,0.6,0.6,0.9,1c47-34.9,94.1-69.7,141.1-104.6c0.1,0.2,0.2,0.3,0.4,0.5
	c-45.2,37.2-90.4,74.5-135.5,111.7c0.2,0.4,0.4,0.7,0.7,1.1c52.7-27,105.4-53.9,158.1-80.9c0.1,0.1,0.2,0.3,0.2,0.4
	c-51.3,29.6-102.6,59.2-153.8,88.8c0.2,0.4,0.3,0.8,0.5,1.2c56.7-18,113.5-35.9,170.2-53.9c0,0.1,0.1,0.3,0.1,0.4
	c-55.7,20.8-111.4,41.5-167.1,62.3c0.1,0.4,0.2,0.9,0.3,1.3c60-8.4,120.1-16.9,180.1-25.3c0,0.1,0,0.2,0,0.2
	c-59.6,11.5-119.2,23-178.8,34.5c0,0.4,0.1,0.9,0.1,1.3c60.3,1.6,120.7,3.1,182,4.7c-1.2,0.3-1.6,0.5-1.9,0.5
	c-9.6,0.3-19.2,0.5-28.7,0.7c-24.9,0.5-49.8,1-74.8,1.6c-18.3,0.4-36.6,0.9-55,1.4c-6.5,0.2-12.9,0.4-19.4,0.6
	c-0.8,0-1.5,0.2-2.3,0.3c0,0.3-0.1,0.7-0.1,1c59.6,11.5,119.2,23,178.8,34.4c0,0.1,0,0.2,0,0.2c-60-8.4-120-16.9-180-25.3
	c-0.1,0.4-0.3,0.8-0.4,1.3c55.7,20.8,111.4,41.6,167.2,62.4c0,0.1-0.1,0.3-0.1,0.4c-56.7-18-113.4-35.9-170.1-53.9
	c-0.2,0.4-0.4,0.8-0.6,1.1c51.3,29.6,102.5,59.2,153.8,88.8c-0.1,0.1-0.1,0.3-0.2,0.4c-52.7-27-105.4-53.9-158.1-80.9
	c-0.2,0.3-0.5,0.7-0.7,1c46.3,38.2,92.6,76.3,138.9,114.5c-0.1,0.1-0.2,0.2-0.2,0.3c-48.2-35.7-96.3-71.4-144.5-107.2
	c-0.3,0.3-0.6,0.6-0.9,0.9c39.3,45.1,78.6,90.1,117.8,135.2c-0.1,0.1-0.2,0.2-0.3,0.3c-41.5-43-83.1-86-124.6-129
	c-0.3,0.3-0.7,0.5-1,0.8c31,50.3,62.1,100.7,93.1,151c-0.1,0.1-0.3,0.2-0.4,0.3c-33.5-48.6-66.9-97.2-100.4-145.7
	c-0.4,0.2-0.8,0.4-1.2,0.6c22.3,54.7,44.6,109.4,66.9,164.1c-0.1,0.1-0.3,0.1-0.4,0.2c-25.1-53.6-50.2-107.2-75.3-160.8
	c-0.4,0.1-0.8,0.3-1.2,0.4c13,57.7,26,115.4,39,173.1c-0.2,0-0.3,0.1-0.5,0.1c-15.9-57-31.8-114.1-47.6-171.1
	c-0.4,0-0.8,0.1-1.2,0.1c3.5,61.9,6.9,123.8,10.4,185.6c0,0-0.1,0-0.1,0c-6.6-61.5-13.2-123-19.9-184.5c-0.4,0-0.9,0-1.3,0
	c-6.6,61.5-13.2,123-19.9,184.5c-0.1,0-0.1,0-0.2,0c0.9-15.3,1.8-30.6,2.7-45.9c0.6-9.9,1.1-19.8,1.7-29.8c0.9-16,1.9-32,2.7-48
	c0.6-10.9,1.1-21.8,1.6-32.6c0.4-8.6,1-17.2,1.4-25.8c0.1-1.2,0-2.3,0-3.5c-0.3-0.1-0.6-0.1-0.9-0.2c-15.9,57-31.8,114-47.6,171
	c-0.2,0-0.3-0.1-0.5-0.1c13-57.6,26-115.2,38.9-172.8c-0.4-0.2-0.8-0.3-1.2-0.5c-25.1,53.6-50.2,107.2-75.3,160.8
	c-0.1-0.1-0.3-0.1-0.4-0.2c22.3-54.7,44.7-109.4,67-164.1c-0.4-0.2-0.8-0.4-1.2-0.7c-33.5,48.5-66.9,97.1-100.4,145.6
	c-0.1-0.1-0.3-0.2-0.4-0.3c31-50.3,62-100.6,93.1-150.9c-0.3-0.3-0.7-0.6-1-0.8c-41.8,43.3-83.6,86.5-125.4,129.8
	C79.7,430.9,79.6,430.8,79.6,430.7z"/>
</svg>
