<?xml version="1.0" encoding="utf-8"?>
<!-- Generator: Adobe Illustrator 27.8.1, SVG Export Plug-In . SVG Version: 6.00 Build 0)  -->
<svg version="1.1" id="Layer_1" xmlns="http://www.w3.org/2000/svg" xmlns:xlink="http://www.w3.org/1999/xlink" x="0px" y="0px"
	 viewBox="0 0 2000 2000" style="enable-background:new 0 0 2000 2000;" xml:space="preserve">

<g>
	<g>
		<path class="st0" d="M1000,1989.4c-46.3,0-91.2-26.4-133.3-78.3c-40.4-49.9-76.7-121.3-107.9-212.2
			c-31.1-90.8-55.5-196.5-72.6-314.2c-17.7-121.8-26.6-251.2-26.6-384.6c0-133.4,9-262.8,26.6-384.6
			c17.1-117.7,41.5-223.4,72.6-314.2c31.2-90.9,67.5-162.3,107.9-212.2c42.1-52,87-78.3,133.3-78.3s91.2,26.4,133.3,78.3
			c40.4,49.9,76.7,121.3,107.9,212.2c31.1,90.8,55.5,196.5,72.6,314.2c17.7,121.8,26.6,251.2,26.6,384.6c0,133.4-9,262.8-26.6,384.6
			c-17.1,117.7-41.5,223.4-72.6,314.2c-31.2,90.9-67.5,162.3-107.9,212.2C1091.2,1963,1046.3,1989.4,1000,1989.4z M1000,14.6
			c-185.5,0-336.4,442-336.4,985.4c0,543.4,150.9,985.4,336.4,985.4c185.5,0,336.4-442,336.4-985.4
			C1336.4,456.6,1185.5,14.6,1000,14.6z"/>
		<path class="st0" d="M1000,1964.4c-49.6,0-97.7-25.7-142.9-76.3c-43.4-48.7-82.4-118.3-115.8-206.9
			c-33.4-88.5-59.6-191.6-77.9-306.3c-19-118.8-28.6-244.9-28.6-374.9s9.6-256.2,28.6-374.9c18.3-114.7,44.5-217.8,77.9-306.3
			c33.4-88.6,72.4-158.2,115.8-206.9c45.2-50.6,93.2-76.3,142.9-76.3s97.7,25.7,142.9,76.3c43.4,48.7,82.4,118.3,115.8,206.9
			c33.4,88.5,59.6,191.6,77.9,306.3c19,118.8,28.6,244.9,28.6,374.9s-9.6,256.2-28.6,374.9c-18.3,114.7-44.5,217.8-77.9,306.3
			c-33.4,88.6-72.4,158.2-115.8,206.9C1097.7,1938.7,1049.6,1964.4,1000,1964.4z M1000,39.6c-199.2,0-361.2,430.8-361.2,960.4
			s162,960.4,361.2,960.4c199.2,0,361.2-430.8,361.2-960.4S1199.2,39.6,1000,39.6z"/>
		<path class="st0" d="M1000,1939.4c-53,0-104.3-25-152.5-74.3c-46.4-47.4-88.1-115.2-123.8-201.5c-35.7-86.2-63.7-186.6-83.3-298.4
			c-20.3-115.7-30.5-238.6-30.5-365.2c0-126.7,10.3-249.5,30.5-365.2c19.6-111.8,47.6-212.2,83.3-298.4
			c35.8-86.3,77.4-154.1,123.8-201.5C895.7,85.6,947,60.6,1000,60.6c53,0,104.3,25,152.5,74.3c46.4,47.4,88.1,115.2,123.8,201.5
			c35.7,86.2,63.7,186.6,83.3,298.4c20.3,115.7,30.5,238.6,30.5,365.2c0,126.7-10.3,249.5-30.5,365.2
			c-19.6,111.8-47.6,212.2-83.3,298.4c-35.8,86.3-77.4,154.1-123.8,201.5C1104.3,1914.4,1053,1939.4,1000,1939.4z M1000,64.6
			c-213,0-386.2,419.6-386.2,935.4S787,1935.4,1000,1935.4c213,0,386.2-419.6,386.2-935.4S1213,64.6,1000,64.6z"/>
		<path class="st0" d="M1000,1914.5c-56.3,0-110.9-24.3-162.2-72.2c-49.4-46.1-93.7-112.1-131.8-196.2
			c-38-83.9-67.9-181.7-88.7-290.5c-21.6-112.6-32.5-232.2-32.5-355.6s10.9-242.9,32.5-355.6C638.1,535.6,668,437.9,706,353.9
			c38.1-84,82.4-150.1,131.8-196.2c51.3-47.9,105.9-72.2,162.2-72.2c56.3,0,110.9,24.3,162.2,72.2c49.4,46.1,93.7,112.1,131.8,196.2
			c38,83.9,67.9,181.7,88.7,290.5c21.6,112.6,32.5,232.2,32.5,355.6s-10.9,242.9-32.5,355.6c-20.8,108.8-50.7,206.6-88.7,290.5
			c-38.1,84-82.4,150.1-131.8,196.2C1110.9,1890.2,1056.3,1914.5,1000,1914.5z M1000,89.5c-55.3,0-108.9,23.9-159.5,71.2
			c-49,45.8-93,111.4-130.9,194.9c-77.9,172.1-120.8,401-120.8,644.4c0,243.5,42.9,472.3,120.8,644.4
			c37.8,83.6,81.9,149.1,130.9,194.9c50.6,47.2,104.2,71.2,159.5,71.2c55.3,0,108.9-23.9,159.5-71.2c49-45.8,93-111.4,130.9-194.9
			c77.9-172.1,120.8-401,120.8-644.4c0-243.5-42.9-472.3-120.8-644.4c-37.8-83.6-81.9-149.1-130.9-194.9
			C1108.9,113.4,1055.3,89.5,1000,89.5z"/>
		<path class="st0" d="M1000,1889.5c-59.6,0-117.5-23.6-171.9-70.2c-52.4-44.9-99.4-109.1-139.8-190.8
			c-40.3-81.7-72-176.7-94.1-282.6c-22.9-109.5-34.5-225.9-34.5-345.9s11.6-236.3,34.5-345.9c22.1-105.8,53.8-200.9,94.1-282.6
			c40.4-81.8,87.4-146,139.8-190.8c54.4-46.6,112.2-70.2,171.9-70.2s117.5,23.6,171.9,70.2c52.4,44.9,99.4,109.1,139.8,190.8
			c40.3,81.7,72,176.7,94.1,282.6c22.9,109.5,34.5,225.9,34.5,345.9s-11.6,236.3-34.5,345.9c-22.1,105.8-53.8,200.9-94.1,282.6
			c-40.4,81.8-87.4,146-139.8,190.8C1117.5,1865.9,1059.6,1889.5,1000,1889.5z M1000,114.5c-116.2,0-225.7,91.9-308.1,258.8
			C609.3,540.7,563.8,763.2,563.8,1000c0,236.8,45.5,459.3,128.1,626.7c82.4,166.9,191.8,258.8,308.1,258.8s225.7-91.9,308.1-258.8
			c82.6-167.4,128.1-389.9,128.1-626.7c0-236.8-45.5-459.3-128.1-626.7C1225.7,206.4,1116.2,114.5,1000,114.5z"/>
		<path class="st0" d="M1000,1864.5c-63,0-124.1-22.9-181.5-68.2c-55.4-43.6-105.1-106-147.8-185.5
			c-42.6-79.4-76.1-171.8-99.5-274.7c-24.2-106.5-36.5-219.6-36.5-336.2c0-116.6,12.3-229.7,36.5-336.2
			c23.4-102.9,56.8-195.3,99.5-274.7c42.7-79.5,92.4-141.9,147.8-185.5c57.5-45.3,118.5-68.2,181.5-68.2c63,0,124.1,22.9,181.5,68.2
			c55.4,43.6,105.1,106,147.8,185.5c42.6,79.4,76.1,171.8,99.5,274.7c24.2,106.5,36.5,219.6,36.5,336.2
			c0,116.6-12.3,229.7-36.5,336.2c-23.4,102.9-56.8,195.3-99.5,274.7c-42.7,79.5-92.4,141.9-147.8,185.5
			C1124.1,1841.6,1063,1864.5,1000,1864.5z M1000,139.5c-123,0-238.6,89.3-325.8,251.6C586.9,553.7,538.8,769.9,538.8,1000
			s48.1,446.3,135.4,608.9c87.1,162.2,202.8,251.6,325.8,251.6s238.6-89.3,325.8-251.6c87.3-162.6,135.4-378.9,135.4-608.9
			s-48.1-446.3-135.4-608.9C1238.6,228.8,1123,139.5,1000,139.5z"/>
		<path class="st0" d="M1000,1839.6c-66.3,0-130.6-22.3-191.2-66.2c-58.3-42.4-110.7-103-155.7-180.1
			c-44.9-77.1-80.2-166.8-104.8-266.8c-25.5-103.4-38.4-213.3-38.4-326.5c0-113.2,12.9-223.1,38.4-326.5
			c24.6-99.9,59.9-189.7,104.8-266.8c45-77.2,97.4-137.8,155.7-180.1c60.5-43.9,124.8-66.2,191.2-66.2c66.3,0,130.6,22.3,191.2,66.2
			c58.3,42.4,110.7,103,155.7,180.1c44.9,77.1,80.2,166.8,104.8,266.8c25.5,103.4,38.4,213.3,38.4,326.5
			c0,113.2-12.9,223.1-38.4,326.5c-24.6,99.9-59.9,189.7-104.8,266.8c-45,77.2-97.4,137.8-155.7,180.1
			C1130.6,1817.3,1066.3,1839.6,1000,1839.6z M1000,164.4c-129.6,0-251.6,86.8-343.4,244.3c-92,157.9-142.7,367.9-142.7,591.3
			s50.7,433.4,142.7,591.3c91.8,157.6,213.8,244.3,343.4,244.3c129.6,0,251.6-86.8,343.4-244.3c92-157.9,142.7-367.9,142.7-591.3
			c0-223.4-50.7-433.4-142.7-591.3C1251.6,251.2,1129.6,164.4,1000,164.4z"/>
		<path class="st0" d="M1000,1814.6c-69.7,0-137.2-21.6-200.8-64.2c-61.3-41.1-116.4-99.9-163.6-174.7
			c-47.2-74.8-84.3-161.9-110.2-258.8C498.6,1216.5,485,1109.9,485,1000c0-109.9,13.6-216.5,40.4-316.8c25.9-97,63-184,110.2-258.8
			c47.3-74.9,102.3-133.7,163.6-174.7c63.6-42.6,131.1-64.2,200.8-64.2s137.2,21.6,200.8,64.2c61.3,41.1,116.4,99.9,163.6,174.7
			c47.2,74.8,84.3,161.9,110.2,258.8c26.8,100.3,40.4,206.9,40.4,316.8c0,109.9-13.6,216.5-40.4,316.8c-25.9,97-63,184-110.2,258.8
			c-47.3,74.9-102.3,133.7-163.6,174.7C1137.2,1793,1069.7,1814.6,1000,1814.6z M1000,189.4c-136.3,0-264.5,84.2-361.1,237.1
			C542.3,579.6,489,783.3,489,1000c0,216.7,53.3,420.4,149.9,573.5c96.5,152.9,224.7,237.1,361.1,237.1s264.5-84.2,361.1-237.1
			c96.7-153.2,149.9-356.8,149.9-573.5c0-216.7-53.3-420.4-149.9-573.5C1264.5,273.6,1136.3,189.4,1000,189.4z"/>
		<path class="st0" d="M1000,1789.6c-73,0-143.8-20.9-210.5-62.2c-64.3-39.8-122-96.8-171.6-169.4
			c-49.5-72.5-88.4-156.9-115.6-250.9c-28.1-97.3-42.4-200.6-42.4-307.1c0-106.5,14.3-209.8,42.4-307.1
			c27.2-94,66-178.4,115.6-250.9c49.6-72.6,107.3-129.5,171.6-169.4c66.6-41.3,137.5-62.2,210.5-62.2s143.8,20.9,210.5,62.2
			c64.3,39.8,122,96.8,171.6,169.4c49.5,72.5,88.4,156.9,115.6,250.9c28.1,97.3,42.4,200.6,42.4,307.1
			c0,106.5-14.3,209.8-42.4,307.1c-27.2,94-66,178.4-115.6,250.9c-49.6,72.6-107.3,129.5-171.6,169.4
			C1143.8,1768.7,1073,1789.6,1000,1789.6z M1000,214.4c-143,0-277.5,81.6-378.8,229.8C519.8,592.6,464,790,464,1000
			c0,210,55.8,407.4,157.2,555.8C722.5,1704,857,1785.6,1000,1785.6c143,0,277.5-81.6,378.8-229.8
			C1480.2,1407.4,1536,1210,1536,1000c0-210-55.8-407.4-157.2-555.8C1277.5,296,1143,214.4,1000,214.4z"/>
		<path class="st0" d="M1000,1764.7c-76.4,0-150.4-20.3-220.1-60.2c-67.3-38.6-127.7-93.7-179.6-164c-51.8-70.2-92.5-152-121-243
			c-29.4-94.2-44.3-194.3-44.3-297.5c0-103.2,14.9-203.3,44.3-297.5c28.4-91,69.1-172.8,121-243c51.9-70.3,112.3-125.4,179.6-164
			c69.7-39.9,143.8-60.2,220.1-60.2c76.4,0,150.4,20.3,220.1,60.2c67.3,38.6,127.7,93.7,179.6,164c51.8,70.2,92.5,152,121,243
			c29.4,94.2,44.3,194.3,44.3,297.5c0,103.2-14.9,203.3-44.3,297.5c-28.4,91-69.1,172.8-121,243c-51.9,70.3-112.3,125.4-179.6,164
			C1150.4,1744.4,1076.4,1764.7,1000,1764.7z M1000,239.3c-149.7,0-290.5,79-396.5,222.6C497.4,605.6,439,796.7,439,1000
			c0,203.3,58.4,394.4,164.5,538.1c106,143.5,246.8,222.6,396.5,222.6c149.7,0,290.5-79,396.5-222.6
			c106.1-143.7,164.5-334.8,164.5-538.1c0-203.3-58.4-394.4-164.5-538.1C1290.5,318.3,1149.7,239.3,1000,239.3z"/>
		<path class="st0" d="M1000,1739.7c-79.7,0-157-19.6-229.8-58.2c-70.3-37.3-133.4-90.7-187.5-158.6
			c-54.1-67.9-96.7-147-126.3-235.1c-30.7-91.2-46.3-188-46.3-287.8s15.6-196.6,46.3-287.8c29.7-88.1,72.2-167.2,126.3-235.1
			c54.2-68,117.3-121.3,187.5-158.6c72.8-38.6,150.1-58.2,229.8-58.2s157,19.6,229.8,58.2c70.3,37.3,133.4,90.7,187.5,158.6
			c54.1,67.9,96.7,147,126.3,235.1c30.7,91.2,46.3,188,46.3,287.8s-15.6,196.6-46.3,287.8c-29.7,88.1-72.2,167.2-126.3,235.1
			c-54.2,68-117.3,121.3-187.5,158.6C1157,1720.1,1079.7,1739.7,1000,1739.7z M1000,264.3c-323.1,0-586,330-586,735.7
			c0,405.7,262.9,735.7,586,735.7c323.1,0,586-330,586-735.7C1586,594.3,1323.1,264.3,1000,264.3z"/>
		<path class="st0" d="M1000,1714.8c-83,0-163.6-18.9-239.5-56.2c-73.2-36-139-87.6-195.5-153.2c-56.4-65.6-100.8-142.1-131.7-227.2
			c-32-88.1-48.3-181.7-48.3-278.1c0-96.5,16.2-190,48.3-278.1c31-85.1,75.3-161.5,131.7-227.2c56.5-65.7,122.2-117.2,195.5-153.2
			c75.8-37.3,156.4-56.2,239.5-56.2s163.6,18.9,239.5,56.2c73.2,36,139,87.6,195.5,153.2c56.4,65.6,100.8,142.1,131.7,227.2
			c32,88.1,48.3,181.7,48.3,278.1c0,96.5-16.2,190-48.3,278.1c-31,85.1-75.3,161.5-131.7,227.2c-56.5,65.7-122.2,117.2-195.5,153.2
			C1163.6,1695.9,1083,1714.8,1000,1714.8z M1000,289.2c-336.9,0-610.9,318.9-610.9,710.8s274,710.8,610.9,710.8
			c336.9,0,610.9-318.9,610.9-710.8S1336.9,289.2,1000,289.2z"/>
		<path class="st0" d="M1000,1689.8c-86.4,0-170.2-18.2-249.1-54.2c-76.2-34.8-144.6-84.5-203.4-147.9
			c-58.8-63.4-104.9-137.1-137.1-219.3c-33.4-85-50.3-175.3-50.3-268.5s16.9-183.4,50.3-268.5c32.2-82.1,78.3-155.9,137.1-219.3
			c58.8-63.4,127.2-113.1,203.4-147.9c78.9-36,162.7-54.2,249.1-54.2s170.2,18.2,249.1,54.2c76.2,34.8,144.6,84.5,203.4,147.9
			c58.8,63.4,104.9,137.1,137.1,219.3c33.4,85,50.3,175.4,50.3,268.5s-16.9,183.4-50.3,268.5c-32.2,82.1-78.3,155.9-137.1,219.3
			c-58.8,63.4-127.2,113.1-203.4,147.9C1170.2,1671.6,1086.4,1689.8,1000,1689.8z M1000,314.2c-350.6,0-635.9,307.6-635.9,685.8
			c0,378.2,285.3,685.8,635.9,685.8c350.6,0,635.9-307.6,635.9-685.8C1635.9,621.8,1350.6,314.2,1000,314.2z"/>
		<path class="st0" d="M1000,1664.8c-89.7,0-176.8-17.6-258.8-52.2c-79.2-33.5-150.3-81.4-211.3-142.5
			c-61.1-61.1-109-132.1-142.5-211.3c-34.7-82-52.2-169-52.2-258.8c0-89.7,17.6-176.8,52.2-258.8c33.5-79.2,81.4-150.3,142.5-211.3
			c61.1-61.1,132.1-109,211.3-142.5c82-34.7,169-52.2,258.8-52.2c89.7,0,176.8,17.6,258.8,52.2c79.2,33.5,150.3,81.4,211.3,142.5
			c61.1,61.1,109,132.1,142.5,211.3c34.7,82,52.2,169,52.2,258.8c0,89.7-17.6,176.8-52.2,258.8c-33.5,79.2-81.4,150.3-142.5,211.3
			c-61.1,61.1-132.2,109-211.3,142.5C1176.8,1647.2,1089.7,1664.8,1000,1664.8z M1000,339.2c-364.4,0-660.8,296.4-660.8,660.8
			c0,364.4,296.4,660.8,660.8,660.8s660.8-296.4,660.8-660.8C1660.8,635.6,1364.4,339.2,1000,339.2z"/>
		<path class="st0" d="M1000,1639.9c-93.1,0-183.4-16.9-268.5-50.3c-82.1-32.2-155.9-78.3-219.3-137.1
			c-63.4-58.8-113.1-127.2-147.9-203.4c-36-78.9-54.2-162.7-54.2-249.1s18.2-170.2,54.2-249.1c34.8-76.2,84.5-144.6,147.9-203.4
			c63.4-58.8,137.1-104.9,219.3-137.1c85-33.4,175.3-50.3,268.5-50.3s183.4,16.9,268.5,50.3c82.1,32.2,155.9,78.3,219.3,137.1
			c63.4,58.8,113.1,127.2,147.9,203.4c36,78.9,54.2,162.7,54.2,249.1s-18.2,170.2-54.2,249.1c-34.8,76.2-84.5,144.6-147.9,203.4
			c-63.4,58.8-137.1,104.9-219.3,137.1C1183.4,1623,1093.1,1639.9,1000,1639.9z M1000,364.1c-378.2,0-685.8,285.3-685.8,635.9
			c0,350.6,307.6,635.9,685.8,635.9s685.8-285.3,685.8-635.9C1685.8,649.4,1378.2,364.1,1000,364.1z"/>
		<path class="st0" d="M1000,1614.9c-96.5,0-190-16.2-278.1-48.3c-85.1-31-161.5-75.3-227.2-131.7
			c-65.7-56.5-117.2-122.2-153.2-195.5c-37.3-75.8-56.2-156.4-56.2-239.5s18.9-163.6,56.2-239.5c36-73.2,87.6-139,153.2-195.5
			c65.6-56.4,142.1-100.8,227.2-131.7c88.1-32,181.7-48.3,278.1-48.3c96.5,0,190,16.2,278.1,48.3c85.1,31,161.5,75.3,227.2,131.7
			c65.7,56.5,117.2,122.2,153.2,195.5c37.3,75.8,56.2,156.4,56.2,239.5s-18.9,163.6-56.2,239.5c-36,73.2-87.6,139-153.2,195.5
			c-65.6,56.4-142.1,100.8-227.2,131.7C1190,1598.7,1096.5,1614.9,1000,1614.9z M1000,389.1c-391.9,0-710.8,274-710.8,610.9
			c0,336.9,318.9,610.9,710.8,610.9s710.8-274,710.8-610.9C1710.8,663.1,1391.9,389.1,1000,389.1z"/>
		<path class="st0" d="M1000,1590c-99.8,0-196.6-15.6-287.8-46.3c-88.1-29.7-167.2-72.2-235.1-126.3
			c-68-54.2-121.3-117.3-158.6-187.5c-38.6-72.8-58.2-150.1-58.2-229.8s19.6-157,58.2-229.8c37.3-70.3,90.7-133.4,158.6-187.5
			c67.9-54.1,147-96.7,235.1-126.3c91.2-30.7,188-46.3,287.8-46.3s196.6,15.6,287.8,46.3c88.1,29.7,167.2,72.2,235.1,126.3
			c68,54.2,121.3,117.3,158.6,187.5c38.6,72.8,58.2,150.1,58.2,229.8s-19.6,157-58.2,229.8c-37.3,70.3-90.7,133.4-158.6,187.5
			c-67.9,54.1-147,96.7-235.1,126.3C1196.6,1574.4,1099.8,1590,1000,1590z M1000,414c-405.7,0-735.7,262.9-735.7,586
			c0,323.1,330,586,735.7,586c405.7,0,735.7-262.9,735.7-586C1735.7,676.9,1405.7,414,1000,414z"/>
		<path class="st0" d="M1000,1565c-103.2,0-203.3-14.9-297.5-44.3c-91-28.4-172.8-69.1-243-121c-70.3-51.9-125.4-112.3-164-179.6
			c-39.9-69.7-60.2-143.8-60.2-220.1c0-76.4,20.3-150.4,60.2-220.1c38.6-67.3,93.7-127.7,164-179.6c70.2-51.8,152-92.5,243-121
			C796.7,449.9,896.8,435,1000,435s203.3,14.9,297.5,44.3c91,28.4,172.8,69.1,243,121c70.3,51.9,125.4,112.3,164,179.6
			c39.9,69.7,60.2,143.8,60.2,220.1c0,76.4-20.3,150.4-60.2,220.1c-38.6,67.3-93.7,127.7-164,179.6c-70.2,51.8-152,92.5-243,121
			C1203.3,1550.1,1103.2,1565,1000,1565z M1000,439c-203.3,0-394.4,58.4-538.1,164.5c-143.5,106-222.6,246.8-222.6,396.5
			c0,149.7,79,290.5,222.6,396.5C605.6,1502.6,796.7,1561,1000,1561s394.4-58.4,538.1-164.5c143.5-106,222.6-246.8,222.6-396.5
			c0-149.7-79-290.5-222.6-396.5C1394.4,497.4,1203.3,439,1000,439z"/>
		<path class="st0" d="M1000,1540c-106.5,0-209.8-14.3-307.1-42.4c-94-27.2-178.4-66-250.9-115.6
			c-72.6-49.6-129.5-107.3-169.4-171.6c-41.3-66.6-62.2-137.5-62.2-210.5c0-73,20.9-143.8,62.2-210.5
			c39.8-64.3,96.8-122,169.4-171.6c72.5-49.5,156.9-88.4,250.9-115.6C790.2,474.3,893.5,460,1000,460c106.5,0,209.8,14.3,307.1,42.4
			c94,27.2,178.4,66,250.9,115.6c72.6,49.6,129.5,107.3,169.4,171.6c41.3,66.6,62.2,137.5,62.2,210.5c0,73-20.9,143.8-62.2,210.5
			c-39.8,64.3-96.8,122-169.4,171.6c-72.5,49.5-156.9,88.4-250.9,115.6C1209.8,1525.7,1106.5,1540,1000,1540z M1000,464
			c-210,0-407.4,55.8-555.8,157.2C296,722.5,214.4,857,214.4,1000s81.6,277.5,229.8,378.8C592.6,1480.2,790,1536,1000,1536
			c210,0,407.4-55.8,555.8-157.2c148.2-101.2,229.8-235.7,229.8-378.8s-81.6-277.5-229.8-378.8C1407.4,519.8,1210,464,1000,464z"/>
		<path class="st0" d="M1000,1515c-109.9,0-216.5-13.6-316.8-40.4c-97-25.9-184-63-258.8-110.2c-74.9-47.3-133.7-102.3-174.7-163.6
			c-42.6-63.6-64.2-131.1-64.2-200.8s21.6-137.2,64.2-200.8c41.1-61.3,99.9-116.4,174.7-163.6c74.8-47.2,161.9-84.3,258.8-110.2
			C783.5,498.6,890.1,485,1000,485c109.9,0,216.5,13.6,316.8,40.4c97,25.9,184,63,258.8,110.2c74.9,47.3,133.7,102.3,174.7,163.6
			c42.6,63.6,64.2,131.1,64.2,200.8s-21.6,137.2-64.2,200.8c-41.1,61.3-99.9,116.4-174.7,163.6c-74.8,47.2-161.9,84.3-258.8,110.2
			C1216.5,1501.4,1109.9,1515,1000,1515z M1000,489c-216.7,0-420.4,53.3-573.5,149.9C273.6,735.5,189.4,863.7,189.4,1000
			s84.2,264.5,237.1,361.1C579.6,1457.7,783.3,1511,1000,1511c216.7,0,420.4-53.3,573.5-149.9c152.9-96.5,237.1-224.7,237.1-361.1
			s-84.2-264.5-237.1-361.1C1420.4,542.3,1216.7,489,1000,489z"/>
		<path class="st0" d="M1000,1490.1c-113.2,0-223.1-12.9-326.5-38.4c-99.9-24.6-189.7-59.9-266.8-104.8
			c-77.2-45-137.8-97.4-180.1-155.7c-43.9-60.5-66.2-124.8-66.2-191.2c0-66.3,22.3-130.6,66.2-191.2
			c42.4-58.3,103-110.7,180.1-155.7c77.1-44.9,166.8-80.2,266.8-104.8c103.4-25.5,213.3-38.4,326.5-38.4s223.1,12.9,326.5,38.4
			c99.9,24.6,189.7,59.9,266.8,104.8c77.2,45,137.8,97.4,180.1,155.7c43.9,60.5,66.2,124.8,66.2,191.2c0,66.3-22.3,130.6-66.2,191.2
			c-42.4,58.3-103,110.7-180.1,155.7c-77.1,44.9-166.8,80.2-266.8,104.8C1223.1,1477.2,1113.2,1490.1,1000,1490.1z M1000,513.9
			c-223.4,0-433.4,50.7-591.3,142.7C251.2,748.4,164.4,870.4,164.4,1000c0,129.6,86.8,251.6,244.3,343.4
			c157.9,92,367.9,142.7,591.3,142.7c223.4,0,433.4-50.7,591.3-142.7c157.6-91.8,244.3-213.8,244.3-343.4
			c0-129.6-86.8-251.6-244.3-343.4C1433.4,564.6,1223.4,513.9,1000,513.9z"/>
		<path class="st0" d="M1000,1465.2c-116.6,0-229.7-12.3-336.2-36.5c-102.9-23.4-195.3-56.8-274.7-99.5
			c-79.5-42.7-141.9-92.4-185.5-147.8c-45.3-57.5-68.2-118.5-68.2-181.5c0-63,22.9-124.1,68.2-181.5
			c43.6-55.4,106-105.1,185.5-147.8c79.4-42.6,171.8-76.1,274.7-99.5c106.5-24.2,219.6-36.5,336.2-36.5
			c116.6,0,229.7,12.3,336.2,36.5c102.9,23.4,195.3,56.8,274.7,99.5c79.5,42.7,141.9,92.4,185.5,147.8
			c45.3,57.5,68.2,118.5,68.2,181.5c0,63-22.9,124.1-68.2,181.5c-43.6,55.4-106,105.1-185.5,147.8c-79.4,42.6-171.8,76.1-274.7,99.5
			C1229.7,1452.9,1116.6,1465.2,1000,1465.2z M1000,538.8c-230.1,0-446.3,48.1-608.9,135.4C228.8,761.4,139.5,877,139.5,1000
			s89.3,238.6,251.6,325.8c162.6,87.3,378.9,135.4,608.9,135.4s446.3-48.1,608.9-135.4c162.2-87.1,251.6-202.8,251.6-325.8
			s-89.3-238.6-251.6-325.8C1446.3,586.9,1230.1,538.8,1000,538.8z"/>
		<path class="st0" d="M1000,1440.2c-119.9,0-236.3-11.6-345.9-34.5c-105.8-22.1-200.9-53.8-282.6-94.1
			c-81.8-40.4-146-87.4-190.8-139.8c-46.6-54.4-70.2-112.2-70.2-171.9s23.6-117.5,70.2-171.9c44.9-52.4,109.1-99.4,190.8-139.8
			c81.7-40.3,176.7-72,282.6-94.1c109.5-22.9,225.9-34.5,345.9-34.5c119.9,0,236.3,11.6,345.9,34.5
			c105.8,22.1,200.9,53.8,282.6,94.1c81.8,40.4,146,87.4,190.8,139.8c46.6,54.4,70.2,112.2,70.2,171.9s-23.6,117.5-70.2,171.9
			c-44.9,52.4-109.1,99.4-190.8,139.8c-81.7,40.3-176.7,72-282.6,94.1C1236.3,1428.6,1119.9,1440.2,1000,1440.2z M1000,563.8
			c-236.8,0-459.3,45.5-626.7,128.1C206.4,774.3,114.5,883.8,114.5,1000s91.9,225.7,258.8,308.1c167.4,82.6,389.9,128.1,626.7,128.1
			s459.3-45.5,626.7-128.1c166.9-82.4,258.8-191.8,258.8-308.1s-91.9-225.7-258.8-308.1C1459.3,609.3,1236.8,563.8,1000,563.8z"/>
		<path class="st0" d="M1000,1415.2c-123.3,0-242.9-10.9-355.6-32.5c-108.8-20.8-206.6-50.7-290.5-88.7
			c-84-38.1-150.1-82.4-196.2-131.8c-47.9-51.3-72.2-105.9-72.2-162.2c0-56.3,24.3-110.9,72.2-162.2
			c46.1-49.4,112.1-93.7,196.2-131.8c83.9-38,181.7-67.9,290.5-88.7c112.6-21.6,232.2-32.5,355.6-32.5s242.9,10.9,355.6,32.5
			c108.8,20.8,206.6,50.7,290.5,88.7c84,38.1,150.1,82.4,196.2,131.8c47.9,51.3,72.2,105.9,72.2,162.2c0,56.3-24.3,110.9-72.2,162.2
			c-46.1,49.4-112.1,93.7-196.2,131.8c-83.9,38-181.7,67.9-290.5,88.7C1242.9,1404.3,1123.3,1415.2,1000,1415.2z M1000,588.8
			c-243.5,0-472.3,42.9-644.4,120.8c-83.6,37.8-149.1,81.9-194.9,130.9c-47.2,50.6-71.2,104.2-71.2,159.5
			c0,55.3,23.9,108.9,71.2,159.5c45.8,49,111.4,93,194.9,130.9c172.1,77.9,401,120.8,644.4,120.8c243.5,0,472.3-42.9,644.4-120.8
			c83.6-37.8,149.1-81.9,194.9-130.9c47.2-50.6,71.2-104.2,71.2-159.5c0-55.3-23.9-108.9-71.2-159.5c-45.8-49-111.4-93-194.9-130.9
			C1472.3,631.7,1243.5,588.8,1000,588.8z"/>
		<path class="st0" d="M1000,1390.2c-126.7,0-249.5-10.3-365.2-30.5c-111.8-19.6-212.2-47.6-298.4-83.3
			c-86.3-35.7-154.1-77.4-201.5-123.8c-49.3-48.2-74.3-99.6-74.3-152.5s25-104.3,74.3-152.5c47.4-46.4,115.2-88.1,201.5-123.8
			c86.2-35.7,186.6-63.7,298.4-83.3c115.7-20.3,238.6-30.5,365.2-30.5c126.7,0,249.5,10.3,365.2,30.5
			c111.8,19.6,212.2,47.6,298.4,83.3c86.3,35.8,154.1,77.4,201.5,123.8c49.3,48.2,74.3,99.6,74.3,152.5s-25,104.3-74.3,152.5
			c-47.4,46.4-115.2,88.1-201.5,123.8c-86.2,35.7-186.6,63.7-298.4,83.3C1249.5,1379.9,1126.7,1390.2,1000,1390.2z M1000,613.8
			C484.2,613.8,64.6,787,64.6,1000c0,213,419.6,386.2,935.4,386.2s935.4-173.2,935.4-386.2C1935.4,787,1515.8,613.8,1000,613.8z"/>
		<path class="st0" d="M1000,1365.2c-130,0-256.2-9.6-374.9-28.6c-114.7-18.3-217.8-44.5-306.3-77.9
			c-88.6-33.4-158.2-72.4-206.9-115.8c-50.6-45.2-76.3-93.2-76.3-142.9s25.7-97.7,76.3-142.9c48.7-43.4,118.3-82.4,206.9-115.8
			c88.5-33.4,191.6-59.6,306.3-77.9c118.8-19,244.9-28.6,374.9-28.6c130,0,256.2,9.6,374.9,28.6c114.7,18.3,217.8,44.5,306.3,77.9
			c88.6,33.4,158.2,72.4,206.9,115.8c50.6,45.2,76.3,93.2,76.3,142.9s-25.7,97.7-76.3,142.9c-48.7,43.4-118.3,82.4-206.9,115.8
			c-88.5,33.4-191.6,59.6-306.3,77.9C1256.2,1355.6,1130,1365.2,1000,1365.2z M1000,638.8c-529.6,0-960.4,162-960.4,361.2
			c0,199.2,430.8,361.2,960.4,361.2s960.4-162,960.4-361.2C1960.4,800.8,1529.6,638.8,1000,638.8z"/>
		<path class="st0" d="M1000,1340.4c-133.4,0-262.8-9-384.6-26.6c-117.7-17.1-223.4-41.5-314.2-72.6
			c-90.9-31.2-162.3-67.5-212.2-107.9c-52-42.1-78.3-87-78.3-133.3S37,908.8,88.9,866.7c49.9-40.4,121.3-76.7,212.2-107.9
			c90.8-31.1,196.5-55.5,314.2-72.6c121.8-17.7,251.2-26.6,384.6-26.6c133.4,0,262.8,9,384.6,26.6c117.7,17.1,223.4,41.5,314.2,72.6
			c90.9,31.2,162.3,67.5,212.2,107.9c52,42.1,78.3,87,78.3,133.3s-26.4,91.2-78.3,133.3c-49.9,40.4-121.3,76.7-212.2,107.9
			c-90.8,31.1-196.5,55.5-314.2,72.6C1262.8,1331.4,1133.4,1340.4,1000,1340.4z M1000,663.6c-543.4,0-985.4,150.9-985.4,336.4
			c0,185.5,442,336.4,985.4,336.4s985.4-150.9,985.4-336.4C1985.4,814.5,1543.4,663.6,1000,663.6z"/>
	</g>
</g>
</svg>
