<?xml version="1.0" encoding="utf-8"?>
<!-- Generator: Adobe Illustrator 28.1.0, SVG Export Plug-In . SVG Version: 6.00 Build 0)  -->
<svg version="1.1" id="Layer_1" xmlns="http://www.w3.org/2000/svg" xmlns:xlink="http://www.w3.org/1999/xlink" x="0px" y="0px"
	 viewBox="0 0 816 433" style="enable-background:new 0 0 816 433;" xml:space="preserve">
<style type="text/css">
	.st0{opacity:0.95;}
	.st1{fill:#FF8200;}
	.st2{opacity:0.95;fill:#FF8200;enable-background:new    ;}
	.st3{fill:#FFFFFE;}
	.st4{enable-background:new    ;}
	.st5{fill:#FFFFFF;}
	.st6{fill:#FCFDFD;}
</style>
<g class="st0">
	<path class="st1" d="M7.8,216.3c12-6,23.7-11.9,35.4-17.6c10.2-5,20.5-9.7,30.7-14.7c34-16.5,67.9-33,101.9-49.5
		c21.7-10.5,43.5-21,65.2-31.5c22.2-10.7,44.3-21.5,66.4-32.3c22.6-11,45.2-22,67.8-32.9c9.5-4.6,18.9-9.3,28.5-13.6
		c2.1-0.9,5.3-1,7.3,0c23.1,11,46.1,22.4,69.1,33.5c21.9,10.6,43.8,21.1,65.6,31.7c21.9,10.6,43.8,21.3,65.7,31.9
		c22.5,10.9,45,21.7,67.4,32.5c22.3,10.8,44.6,21.7,67,32.5c19.9,9.6,39.9,19.2,59.9,28.9c0.7,0.3,1.3,0.9,2.3,1.6
		c-15,7.3-29.6,14.5-44.1,21.6c-25.4,12.4-50.8,24.7-76.2,37c-20.8,10.1-41.7,20.1-62.5,30.2c-23.2,11.2-46.4,22.5-69.6,33.8
		c-22.2,10.8-44.3,21.5-66.5,32.3c-21.9,10.6-43.7,21.2-65.6,31.8c-4.3,2.1-8.5,4.4-13,5.8c-2.4,0.7-5.8,0.2-8.2-0.9
		c-19.6-9.3-39-18.9-58.5-28.5c-22.1-10.8-44.2-21.7-66.4-32.4c-22.4-10.9-45-21.7-67.4-32.5c-22-10.7-44-21.4-66.1-32
		c-22.6-11-45.2-21.9-67.9-32.9c-21.9-10.6-43.7-21.1-65.6-31.7C9.6,217.8,8.8,217,7.8,216.3z M23.1,216.6
		c12.7,6.1,24.9,11.8,37,17.7c22.5,10.9,45,21.8,67.4,32.7c22.7,11,45.5,22,68.2,33c21.3,10.3,42.5,20.6,63.8,30.9
		c23.6,11.5,47.3,23,70.9,34.5c24.6,12,49.2,24.1,74,35.9c2,1,5.3,0.9,7.3,0c9.3-4.1,18.4-8.6,27.5-13.1
		c33.1-16.1,66.1-32.2,99.2-48.3c22.4-10.9,44.9-21.7,67.3-32.5c21.7-10.5,43.4-21,65.1-31.5c22.2-10.7,44.3-21.5,66.5-32.3
		c11.6-5.6,23.3-11.2,34.9-16.9c6.4-3.1,12.8-6.5,20.3-10.3c-11.3-5.4-21.3-10.1-31.4-14.9c-22-10.6-44-21.2-66-31.9
		c-22.8-11-45.5-22.2-68.3-33.2c-22.2-10.8-44.3-21.5-66.5-32.2C539,93.8,517.6,83.4,496.2,73c-25.9-12.6-51.8-24.9-77.4-38
		c-7.5-3.8-13.9-5.5-21.1,0.1c-1.6,1.3-3.9,1.5-5.9,2.5c-22.6,10.9-45.2,21.9-67.7,32.8c-21.6,10.4-43.2,20.8-64.7,31.3
		c-22.3,10.8-44.6,21.6-66.9,32.4c-23.1,11.2-46.1,22.3-69.1,33.5c-23.3,11.3-46.6,22.6-69.9,34C43.5,206.4,33.7,211.3,23.1,216.6z"
		/>
</g>
<path class="st2" d="M37.7,216.4c9.4-4.7,18.4-9.3,27.5-13.7c10.9-5.3,21.9-10.6,32.8-15.9c22.7-11,45.5-22.1,68.2-33.2
	c21.9-10.6,43.7-21.1,65.6-31.8c22-10.7,44-21.4,66-32.1c22.3-10.8,44.6-21.6,67-32.3c13.5-6.5,26.9-12.9,40.4-19.2
	c1.3-0.6,3.5-0.6,4.8,0c25.6,12.3,51.1,24.8,76.6,37.2c22.7,11.1,45.5,22.1,68.2,33.1c21.9,10.6,43.7,21.3,65.6,31.8
	c22.2,10.7,44.4,21.3,66.6,32.1c28.7,13.8,57.3,27.7,86,41.6c1.5,0.7,2.9,1.5,5.1,2.7c-11.2,5.5-21.8,10.6-32.3,15.7
	c-15.5,7.5-30.9,15.1-46.4,22.7c-34.4,16.7-68.8,33.3-103.2,50c-21.9,10.6-43.7,21.3-65.6,31.9c-33,16-65.9,31.9-98.9,47.8
	c-7,3.4-13.9,6.8-21,9.9c-1.7,0.7-4.3,0.8-5.9,0c-23.3-11.1-46.4-22.5-69.6-33.7c-22.3-10.8-44.6-21.6-67-32.4
	c-22.3-10.8-44.6-21.6-66.9-32.4c-33-16-65.9-31.9-98.9-47.9c-21.1-10.2-42.3-20.5-63.4-30.7C38.8,217.3,38.5,217,37.7,216.4z"/>
<g>
	<path class="st3" d="M364.7,127.2c-1.1-0.7-2.7-1.1-4.9-1c-3.1,0.1-5.9,0.9-8.2,2.4c-2.3,1.5-4,3.6-5,6.3c-0.8,2.2-1.1,4.3-0.8,6
		c0.3,1.8,1.1,3.2,2.4,4.4c1.2,1.2,2.8,2,4.7,2.4c2,0.3,3.5,0.5,4.5,0.4s1.9-0.1,2.6-0.1c1.1,0,2.1-0.1,3-0.4c0.9-0.3,1.6-0.7,2-1.3
		c0.2-0.3,0.2-0.5,0.2-0.7s-0.1-0.4-0.2-0.5c-0.1-0.2-0.2-0.6-0.2-1c0-0.3,0.1-0.7,0.3-1.4c0.1-0.2,0.1-0.4,0.2-0.5
		c0-0.1,0.1-0.2,0.1-0.3c0.1-0.1,0.1-0.2,0.2-0.4s0.2-0.5,0.3-0.8c0.1-0.4,0.3-0.9,0.6-1.6c0-0.6-0.1-1.1-0.5-1.4
		c-0.4-0.4-0.8-0.6-1.3-0.6c-1.2,0-2.4,0.1-3.5,0.3c-1.2,0.3-1.9,0.7-2.4,1.4c-0.1,0.3-0.2,0.5-0.2,0.7s0.1,0.3,0.2,0.5
		c0.1,0.1,0.1,0.3,0.2,0.5c0,0.2,0,0.4,0,0.6c0,0.1,0,0.2-0.1,0.4c-0.1,0.9-0.3,1.6-0.4,2.1c-0.6,2.2-1.5,2.7-2.6,1.6
		c-1.1-1.1-1.7-2.8-1.8-5c-0.1-2.3,0.2-4.3,0.9-6.1c0.7-1.8,1.5-3.2,2.4-4.2s1.8-1.5,2.8-1.6c0.3,0,0.4,0.2,0.4,0.6
		c-0.1,0.4-0.2,1-0.4,2c-0.2,0.9-0.3,1.7-0.3,2.3c0,1.1,0.4,1.9,1.1,2.3c0.7,0.4,1.5,0.5,2.4,0.4c0.9-0.2,1.8-0.6,2.5-1.2
		c0.7-0.6,1.1-1.4,1.2-2.3c0.1-0.7-0.1-1.6-0.4-2.5C366.5,128.7,365.8,127.9,364.7,127.2z"/>
	<path class="st3" d="M379.9,131.5c-0.2,0-0.5,0-0.7,0c-2.7,0.3-5.1,1.2-7.1,2.9s-3.1,3.7-3.5,6c-0.1,1.5,0.1,2.9,0.9,4.1
		c0.7,1.2,1.8,2.1,3.1,2.7c1.4,0.6,3,0.9,4.8,0.8c2.7-0.3,5.1-1.2,7.1-2.9s3.1-3.7,3.5-6c0.2-2.2-0.5-4-2-5.4
		C384.4,132.2,382.4,131.5,379.9,131.5z M380.6,135.6c-0.1,1.3-0.4,2.9-0.8,4.7c-0.4,1.5-0.7,2.7-1.1,3.7c-0.3,0.9-0.7,1.6-1,1.9
		c-0.4,0.3-0.7,0.5-1,0.4c-0.7-0.2-0.9-0.9-0.8-2.3c0.1-1.3,0.4-2.9,0.8-4.8c0.4-1.7,0.9-3.2,1.3-4.3c0.5-1.1,1-1.7,1.7-1.6h0.1
		C380.5,133.5,380.7,134.3,380.6,135.6z"/>
	<path class="st3" d="M407.9,132.9c-0.4-0.7-1-1.1-1.8-1.3s-1.8,0-3,0.5s-1.9,1.3-2.2,2.3c-0.3,1-0.2,1.7,0.4,2.2
		c0.9,0.9,1.1,2.2,0.4,4.1c-0.6,1.9-1.2,3-1.7,3.4s-0.9,0.6-1.3,0.6c-0.3,0-0.6-0.1-0.7-0.3s-0.2-0.5-0.3-0.9
		c-0.1-1.5,0.1-3.4,0.8-5.7c0.4-1.2,0.5-2.3,0.5-3.3c-0.1-1-0.4-1.7-1.1-2.2c-0.6-0.5-1.3-0.7-1.9-0.8c-1.4-0.1-2.7,0.1-4,0.5
		s-2,1.1-2.4,2c-0.1,0.4-0.1,0.7,0,1s0.2,0.5,0.4,0.8c0.1,0.2,0.3,0.4,0.4,0.7s0.2,0.5,0.2,0.9c-0.1,0.4-0.1,0.8-0.2,1.3
		c-0.2,0.8-0.3,1.7-0.4,2.7s-0.1,1.9,0.1,2.8c0.2,0.9,0.5,1.7,1.1,2.4s1.5,1.2,2.8,1.5c0.8,0.1,1.5,0.1,2.1,0c0.3,0,0.6,0,0.9,0
		c1.3-0.1,2.4-0.4,3.4-0.9c0.6-0.3,1-0.7,1.2-1.1c0.2-0.4,0.4-0.8,0.5-1.3s0.4-1.2,0.7-1.9c0.4-0.7,0.9-1.6,1.8-2.5
		c0.3-0.3,0.6-0.7,0.9-1.1c0.5-0.5,0.9-1.1,1.4-1.7c0.5-0.6,0.8-1.2,1.1-1.8C408.2,134.5,408.2,133.6,407.9,132.9z"/>
	<path class="st3" d="M420.5,142.2c1.5-0.5,2.7-1.2,3.5-2.3c0.8-1,1.3-2.1,1.4-3.3s-0.2-2.3-0.9-3.2c-0.7-0.9-1.9-1.6-3.5-1.8
		c-1.1-0.2-2.4-0.2-3.9,0.1c-2.2,0.5-4.1,1.4-5.7,2.7s-2.8,3-3.5,5c-0.5,1.7-0.5,3.1-0.1,4.4s1.2,2.2,2.2,2.9
		c1.1,0.7,2.3,1.2,3.8,1.4c1.8,0.1,3.4-0.1,4.6-0.4c1.2-0.3,2.2-0.8,3-1.4c0.8-0.6,1.3-1.2,1.7-1.8c0.2-0.3,0.3-0.5,0.3-0.6
		c0-0.2-0.1-0.3-0.2-0.3c-0.1-0.1-0.2-0.1-0.4,0c-0.1,0-0.2,0.1-0.3,0.2c-1.2,0.9-2.3,1.3-3.2,1.3c-0.9-0.1-1.7-0.4-2.2-1.1
		c-0.3-0.4-0.5-0.8-0.7-1.3C418,142.6,419.4,142.5,420.5,142.2z M416.2,140.4c-0.1-0.7-0.1-1.6,0.1-2.7c0.2-1.2,0.5-2.2,0.9-3
		s0.9-1.3,1.4-1.4c0.7,0,1,0.3,1,1.1c0,0.7-0.2,1.6-0.7,2.6c-0.4,1-1,1.9-1.6,2.7C416.9,140.3,416.6,140.6,416.2,140.4z"/>
	<path class="st3" d="M435.4,145.4c0.2-0.4,0.3-0.7,0.3-1s-0.1-0.5-0.2-0.8c-0.2-0.4-0.3-0.8-0.2-1.5c0-0.4,0.2-1.1,0.4-2
		c0.2-0.6,0.3-1.3,0.5-1.8c0.2-0.8,0.5-1.6,0.9-2.2c0.4-0.6,0.8-0.8,1.2-0.8c0.3,0,0.4,0.2,0.6,0.6c0.1,0.4-0.1,1.3-0.6,2.8
		c-0.4,1.2-0.8,2.5-1.1,3.7c-0.3,1.3-0.2,2.5,0.2,3.5c0.4,1,1.5,1.7,3.1,2c1.1,0.2,2.1,0.1,3-0.2c0.9-0.4,1.6-0.8,2.1-1.3
		c0.6-0.5,1-0.9,1.2-1.2s0.3-0.5,0.4-0.7c0-0.2,0-0.4-0.1-0.5s-0.3,0-0.6,0.1c-0.8,0.4-1.2-0.1-1.3-1.3c-0.1-1.2,0.4-3,1.4-5.4
		c0.6-1.6,0.8-2.7,0.5-3.6c-0.3-0.8-0.8-1.4-1.5-1.8c-0.7-0.4-1.6-0.6-2.6-0.6s-2,0.2-3,0.5c-1,0.4-1.8,0.9-2.6,1.6
		c0.1-1.3-0.7-2-2.4-2c-1.3-0.1-2.6,0.1-3.9,0.5s-2.2,1.1-2.7,2c-0.2,0.4-0.2,0.7-0.2,1s0.1,0.5,0.2,0.8c0.1,0.2,0.2,0.4,0.2,0.7
		c0.1,0.2,0.1,0.5,0.1,0.9s-0.1,0.8-0.2,1.3c-0.2,0.8-0.5,1.9-1,3.1c-0.2,0.4-0.3,0.7-0.4,1s-0.3,0.5-0.5,0.7
		c-0.3,0.3-0.5,0.5-0.7,0.8s-0.3,0.7-0.4,1.1c-0.1,0.8,0.3,1.5,1.1,1.9s1.9,0.6,3.1,0.6s2.4-0.2,3.6-0.6
		C434.2,146.9,435,146.2,435.4,145.4z"/>
	<path class="st3" d="M464.8,141.6c-2.7,0-5.6,1.6-7.8,3c-0.1-1.4,0.3-3.7,0.5-4.9c0.2-1.3,0.5-2.5,0.9-3.6c0.3-1.1,0.6-2,0.8-2.5
		h1.8c0.2,0,0.5-0.1,0.6-0.3c0.2-0.2,0.3-0.5,0.4-0.8s0.1-0.6,0-0.7c-0.1-0.2-0.2-0.3-0.5-0.3H460c0.2-0.7,0.2-1.4,0.2-2
		c0-0.7-0.3-1.2-0.7-1.6c-0.2-0.2-0.6-0.3-1-0.3c-0.3,0-0.7,0.1-1.2,0.2c-0.5,0.2-0.9,0.4-1.3,0.8c-0.4,0.3-0.8,0.7-1.2,1
		c-0.5,0.4-0.9,0.8-1.4,1.2s-1,0.6-1.6,0.8h-1.6c-0.2,0-0.5,0.1-0.6,0.3c-0.2,0.2-0.3,0.5-0.4,0.7c-0.1,0.3-0.1,0.5,0,0.8
		c0.1,0.2,0.2,0.3,0.5,0.3h1.2c-0.2,1-0.5,2.3-0.9,3.7c-0.4,1.3-0.7,2.6-1,3.9c-0.3,1.3-0.4,3.6-0.1,4.6c0.5,1.5,1.4,2.2,2.1,3
		c0.1,0.1,0.2,0.2,0.3,0.3l-0.1,0.1c-1.4,1-3.2,2-5.7,3.3c-3.1,1.7-4,0.7-5.3-2c-0.9-1.9-3.2-2.2-4.8-1.5c-1.6,0.8-2.5,2.7-1.5,4.5
		c1.7,3.4,8.3,3.7,12.6,1.4c3-1.5,4.7-2.5,6.8-4.1c2.4,1.6,5.3,2.4,7.9,2.4c5,0,8.6-2.8,8.6-6.6
		C469.8,143.7,467.7,141.6,464.8,141.6z M467.5,146.6c0,0.8-0.2,1.6-0.6,2.2c-3.1,3-6.8,0.4-8.6-1.9c1.9-1.4,4.3-3,6.6-3
		C466.4,143.9,467.5,145,467.5,146.6z"/>
</g>
<g class="st4">
	<path class="st5" d="M323.1,187c0.7,0,2.8,1.2,6.4,3.7c1.6,1,2.7,1.5,3.1,1.5v0.1h-48v30.8H309c1.3,0,3.3-0.9,6.1-2.6
		c1.3-0.8,2.3-1.2,3-1.2c0.8,0,3.2,1.4,7,4.1c1.2,0.8,2.1,1.1,2.5,1.1v0.1h-43v30.8c0,0.1,0.1,0.1,0.2,0.1h38c1.7,0,3.6-0.7,5.7-2.1
		c1.8-1.1,3-1.6,3.7-1.6h0.2c0.8,0,3.2,1.3,7,4c1.3,0.8,2.1,1.2,2.5,1.2v0.1H216.8v-1.5h57.3c0.1,0,0.1,0,0.1-0.1v-30.7
		c0-0.1,0-0.1-0.1-0.1h-43v-1.5h43.1v-30.8h-48.1v-1.7h88.1c1.1,0,3.3-1,6.5-3C321.9,187.2,322.6,187,323.1,187z M279.8,173.7
		c1.2,0,3.6,1.2,7.5,3.6c2.7,1.6,4.7,2.5,5.9,2.8v0.1h-27.5v-0.1c2.2-0.3,5.6-1.9,10.3-4.9C277.6,174.2,278.8,173.7,279.8,173.7z"/>
	<path class="st5" d="M374.9,171.7c0.8,0,2.1,0.7,3.7,2c2.2,1.4,4.1,2.2,5.5,2.5v0.1c-1,0-2.1,0.7-3.4,2.1c-0.8,1.2-1.1,2.2-1.1,3.1
		v11.4h7.1c1,0,3.1-1,6.4-3.1c1-0.5,1.8-0.7,2.3-0.7c0.8,0,2.6,1.1,5.7,3.4c1.8,1.3,3,2,3.6,2v0.1h-25.2v24c4.5-0.9,7.1-1.4,7.8-1.7
		c0.9-0.3,2.7-1.6,5.5-4c0.9-0.6,1.6-0.9,2.1-0.9h0.2c0.7,0,3.2,1.1,7.4,3.3c0.7,0.3,1.4,0.5,2.1,0.7v0.1l-25.2,4.5v19.8
		c0,6.5-2.2,11.4-6.6,14.6c-1.1,0.8-2.4,1.6-3.9,2.2c-1.3,0.6-3.4,1.3-6.3,2l-1.9,0.3c-1-3-2.8-5.3-5.4-6.8
		c-1.4-0.9-3.5-1.8-6.2-2.7h-0.4v-0.1h0.1c1.7,0,3.6,0.1,5.5,0.1c5.2,0,8.5-0.5,9.9-1.5c1.9-0.9,3.2-2.2,4-3.9
		c0.7-1.2,1.1-3.6,1.1-6.9v-1.4c0-3.2,0-7.7-0.1-13.6l-23.2,4.3c-0.1-0.6-0.1-1.1-0.1-1.7c1.1-0.2,8.9-1.7,23.3-4.6v-25.9h-22.7
		v-1.6h22.7V180c0-1.9-0.9-3-2.6-3.5c-0.3-0.1-0.7-0.1-1.1-0.1v-0.1c1.6-0.1,3.9-1.3,6.7-3.6C373.5,172,374.3,171.7,374.9,171.7z
		 M463.6,178.7c0.8,0,3,1.4,6.6,4.1c1.5,0.9,2.4,1.3,2.7,1.3v0.1h-30.4v56.1c0,4.2-1.4,8-4.3,11.5c-2,2-3.5,3.3-4.6,3.8
		c-1.6,1-3.6,1.9-5.9,2.7c-1.3,0.4-2.4,0.6-3.5,0.7c-1.7-3.8-5-6.8-10-8.9c-1.7-0.6-2.7-0.9-3.1-0.9v-0.1h0.1c1.2,0,2.3,0.1,3.1,0.1
		h0.8c7,0,11.2-0.7,12.6-2.2c3-2.2,4.5-5.4,4.5-9.5v-53.4h-30c-0.1,0-0.1,0-0.1-0.1v-1.5h52.7c1.2,0,3.4-1,6.7-3.1
		C462.5,179,463.2,178.7,463.6,178.7z"/>
	<path class="st5" d="M494.5,171.5L494.5,171.5c2,1.3,5.7,2.7,11,4.1c1.3,0.5,2.1,1,2.5,1.3H568c1-0.2,2.8-1.3,5.2-3.2
		c0.7-0.5,1.3-0.7,1.9-0.7h0.3c0.9,0,2.4,0.8,4.4,2.3c2,1.2,3.7,2,5.1,2.4c0.1,0,0.3,0.1,0.6,0.2v0.1c-1.5,0-3,0.5-4.4,1.5
		c-0.3,0.4-0.4,0.7-0.4,0.9V202c0,0.6,0.3,1.7,0.8,3.3v0.4c0,1.6-1.8,3-5.4,4.5c-1.4,0.6-2.7,1.4-3.9,2.5l-0.8,0.9
		c-0.5-1.7-2.2-3.7-5-6H531c0,0-0.1,0-0.1,0.1l-0.1-0.1h-23c-0.4,0-1.7,0.5-3.9,1.6v0.1c1.6,1,3.3,1.9,5.3,2.7
		c2.8,1,4.1,1.9,4.1,2.7c0.2,0,0.3,0.4,0.3,1.2v0.1c0,0.9-0.4,2.1-1.1,3.5h21.8v-3.6c0-2.9-1.1-5.7-3.4-8.3h0.1
		c1.8,1.2,5.5,2.6,10.9,4.1c2.4,0.8,3.5,1.8,3.5,3.2c0,0.2-0.2,1.4-0.7,3.6v1.1h26.6c1.2,0,3.2-0.9,6.1-2.7c1.1-0.7,2-1.1,2.7-1.1
		h0.2c0.7,0,2.9,1.4,6.7,4.2c1.2,0.8,1.9,1.1,2.3,1.1v0.1h-44.7v16.2h20.4c1.6,0,3.3-0.6,5.1-1.9c2.1-1.2,3.6-1.9,4.5-1.9
		c0.8,0,3,1.4,6.7,4.1c1.3,0.8,2.2,1.2,2.5,1.2v0.1h-39.3v16.2H583c1.3,0,3.2-0.8,5.6-2.3c1.7-1,2.8-1.5,3.5-1.5
		c0.8,0,3.1,1.4,6.7,4.1c1.3,0.8,2.1,1.3,2.5,1.3H477.9v-1.5h56.5V239h-35.6v-1.5h35.6v-16.2h-22.8c-1.9,2.2-3.4,3.7-4.5,4.3
		c-3.1,2.2-6.8,4-11,5.5c-4.2,1.3-8,1.9-11.4,1.9c-1,0-2.2-0.1-3.5-0.3v-0.1c3.3-1.5,6.9-3.5,10.5-6c2-1.3,4.3-3.3,7.1-6
		c0.1-0.1,0.6-0.7,1.7-1.9c2.1-3,3.2-5.5,3.2-7.5v-0.6c0-0.7-0.1-1.1-0.2-1.1l-8.7,4.4v-0.1c2-2.8,3-6.4,3-10.9c0,0,0.1-0.7,0.1-2.2
		v-20.2C497.8,176.9,496.7,173.9,494.5,171.5z M508.2,193.2v10.5c0,0.1,0,0.2-0.1,0.3c0,1.1,0.3,1.8,0.8,2.1h54.7
		c2.5-0.3,4-0.7,4.5-1.1c1.4-0.7,2.1-1.8,2.1-3.2v-8.5H508.2z M508.8,178.7v0.3c0,0.2-0.2,1.4-0.6,3.4v9.2h48.1
		c1.7,0,3.8-0.8,6.1-2.5c1.6-0.8,2.7-1.3,3.5-1.3c0.9,0.2,2.3,0.9,4.3,2.3v-10.3c0-0.3-0.2-0.6-0.5-1.1H508.8z"/>
</g>
<path class="st6" d="M640.1,227.5c-0.2-3.4-0.5-6.8-0.6-10.2c-0.4-8.3-0.4-16.6-1-24.9c-1.9-24.1-14.3-45.8-39.3-55.5
	c-6.8-2.6-13.9-3.4-21.1-3.6c-11-0.4-22-1-33-1.5c-0.3,0-0.5-0.1-0.8-0.4c1.9-0.1,3.8-0.3,5.7-0.4c10.7-0.5,21.3-0.8,32-1.5
	c22-1.4,38.2-12.2,48.7-31.3c5.2-9.5,7.6-19.9,7.9-30.8c0.3-10.4,0.9-20.8,1.4-31.3c0-0.2,0.1-0.4,0.3-0.6c0.1,0.3,0.2,0.6,0.2,0.8
	c0.6,12.8,1.3,25.5,1.7,38.3c0.8,27.4,20.7,50.1,47.9,54.2c4.4,0.7,8.9,0.7,13.4,0.9c10.7,0.5,21.4,1,32.1,1.5
	c0.2,0,0.5,0.1,0.7,0.4c-1.7,0.1-3.3,0.3-5,0.4c-11.5,0.5-23.1,1.1-34.6,1.5c-21.9,0.7-42.9,15.3-50.5,35.3c-3,7.8-3.9,16-4.2,24.3
	c-0.4,11.1-1,22.3-1.5,33.4c0,0.3-0.1,0.6-0.1,0.9C640.3,227.5,640.2,227.5,640.1,227.5z"/>
</svg>
